<svg id="svg2816" xmlns="http://www.w3.org/2000/svg" viewBox="0 0 360.1 318"><title>BSsign</title><path id="path3101" d="M24,318.1A23.8,23.8,0,0,1,3.3,282.3L159.4,12A23.8,23.8,0,0,1,180,.1h.2A23.8,23.8,0,0,1,200.8,12L357,282.3a23.8,23.8,0,0,1-20.7,35.8Z" transform="translate(-0.1 -0.1)" style="fill:#de0029"/><path id="path3121" d="M37.8,286.3H322.5L180.1,39.8Z" transform="translate(-0.1 -0.1)" style="fill:#fff"/><path id="path3607" d="M180.1,251.3a45,45,0,1,1,45-45A45,45,0,0,1,180.1,251.3Z" transform="translate(-0.1 -0.1)"/></svg>