<svg id="Layer_1" xmlns="http://www.w3.org/2000/svg" xmlns:xlink="http://www.w3.org/1999/xlink" viewBox="0 0 1555.8 1010.7"><defs><mask id="mask" x="0" y="0" width="1018.29" height="1010.69" maskUnits="userSpaceOnUse"><g transform="translate(-58.4 -31)"><g id="mask0"><path d="M802.2,80.9c131.7,0,217.1,85.4,217.1,217.1V774.8c0,131.7-85.4,217.1-217.1,217.1H325.3c-131.7,0-217.1-85.4-217.1-217.1V298c0-131.7,85.4-217.1,217.1-217.1Z" style="fill:#fff"/></g></g></mask></defs><title>splashLogoBSA</title><path d="M802.2,80.9c131.7,0,217.1,85.4,217.1,217.1V774.8c0,131.7-85.4,217.1-217.1,217.1H325.3c-131.7,0-217.1-85.4-217.1-217.1V298c0-131.7,85.4-217.1,217.1-217.1Z" transform="translate(-58.4 -31)" style="fill:#e4ddc9"/><g style="mask:url(#mask)"><path d="M742.2,31.5H66.5V221.3H742.2Z" transform="translate(-58.4 -31)" style="fill:#76c63b;stroke:#6ab133"/><path d="M734.6,365.6H58.9v645.3H734.6Z" transform="translate(-58.4 -31)" style="fill:#e3dcc8;stroke:#cdc6ae"/><path d="M1076.2,365.6H878.8V631.3h197.4Z" transform="translate(-58.4 -31)" style="fill:#e3dcc8;stroke:#cdc6ae"/><path d="M1076.2,775.5H878.8v265.7h197.4Z" transform="translate(-58.4 -31)" style="fill:#e3dcc8;stroke:#cdc6ae"/><path d="M1076.2,31.5H878.8V221.3h197.4Z" transform="translate(-58.4 -31)" style="fill:#fbc6d1;stroke:#e2b1b5"/><path d="M98.5,540.4s0,0,.2,3.8l-.2-3.8-3.4.2v3.4L89.3,686.9l-.2,4.5,4.5-.6h.5l1.7-.2,6.9-.4a270.9,270.9,0,0,1,27.3.5c23.9,1.6,59.1,6.4,103.7,19.5,28.8,8.4,64.2,25.4,90.9,47.8s51.4,50.8,67.9,72.3c8.3,10.8,14.8,20,19.2,26.6l5.1,7.7,1.3,2,.3.5h.1v.2l.2.2c45.2,55.1,103.5,96.3,150.4,123.8,23.4,13.7,44.1,24.1,58.9,30.9,7.4,3.4,13.3,6,17.4,7.8l4.7,1.9,1.2.5h.5l1.3-3.4-1.4,3.5.7.3H912.2l1.1-1.5,69-91.7,5.1-6.8-8.5.7c-150.9,12.9-262.2-30.4-335.7-76.8A474.3,474.3,0,0,1,561,791.8c-9.1-9.1-15.8-16.7-20.3-22.1l-5-6.2-1.2-1.6-.3-.4h0C460,642.7,351,587.5,260.8,561.9a585.5,585.5,0,0,0-114.9-20.3c-14.6-1.1-26.4-1.4-34.6-1.4H98.5Z" transform="translate(-58.4 -31)" style="fill:#ffde02;stroke:#fcb316"/><path d="M738.4,225.1H93.1V361.8H738.4v660.5H875V771.7h189.8V635.1H875V361.8h189.8V225.1H875V50.5H738.4Z" transform="translate(-58.4 -31)" style="fill:#fff"/><path d="M844.6,293.4v-38H85.5v75.9H768.7V642.7h75.9Z" transform="translate(-58.4 -31)" style="fill:#409bff"/><path d="M806.7,771.7a83.5,83.5,0,0,0,83.5-83.5H875.4c0-23.5,5.1-44.7-10.5-59.9A83.5,83.5,0,0,0,744.9,632c-13.5,14.8,5.4,36.4,5.4,58C750.3,736.1,760.6,771.7,806.7,771.7Z" transform="translate(-58.4 -31)" style="fill:#fff"/><path d="M598.6,493.4c10.1,66.8,3.5,184.5-153.1,226.9,0,0-27,6.4-48.2,0,0,0-176.2-32.4-148.4-226.9Z" transform="translate(-58.4 -31)" style="fill:#3780f9"/><path d="M598.6,493.4H248.9a376.2,376.2,0,0,1,10.3-48s57.3,32.2,163.5,0c0,0,89.9,31.5,164.1,0C586.8,445.5,594.2,464.8,598.6,493.4Z" transform="translate(-58.4 -31)" style="fill:#e44a51"/><path d="M259.2,445.5s57.3,32.2,163.5,0c0,0,89.9,31.5,164.1,0,0,0,82.5,214.2-141.3,274.8,0,0-27,6.4-48.2,0C397.3,720.3,192.8,682.7,259.2,445.5Z" transform="translate(-58.4 -31)" style="fill:none;stroke:#fff;stroke-width:1.5px"/><path d="M248.2,498.4h348" transform="translate(-58.4 -31)" style="fill:none;stroke:#fff;stroke-width:1.2999999523162842px"/><rect x="201.7" y="467.4" width="318.9" height="167.02" style="fill:none"/><path d="M1076.2,775.5H878.8v265.7h197.4Z" transform="translate(-58.4 -31)" style="fill:none;stroke:#cdc6ae"/><path d="M734.6,365.6H58.9v645.3H734.6Z" transform="translate(-58.4 -31)" style="fill:none;stroke:#cdc6ae"/><path d="M806.7,786.9a83.5,83.5,0,1,0-83.5-83.5A83.5,83.5,0,0,0,806.7,786.9Z" transform="translate(-58.4 -31)" style="fill:#007aff"/><path d="M772.9,751.5l33.8-100.1,33.7,100.1-33.7-34.8Z" transform="translate(-58.4 -31)" style="fill:#fff"/></g><path d="M1208.5,518.1h-46.8V454.4h24.4q22.4,0,22.4,20.3Zm0,108.4q0,22.4-22.4,22.4h-42.6V602.1h18.2V573.8h-51.2q-22.1,0-22.1-25.2V474.7q0-20.3,22.1-20.3h42.9v44.7h-18.2v27.3h51q22.4,0,22.4,22.1Zm-73.3,22.4h-24.7q-22.1,0-22.1-22.4V582.1h46.8Zm192.2-21.8a21.1,21.1,0,0,1-6.5,15.9,21.3,21.3,0,0,1-15.3,6h-30.9v-39h12.2V552.7h-29.4v-40h43.2q11.7,0,19.2,5.2a16.2,16.2,0,0,1,7.5,14Zm-60.6,79h-40.6V512.7h23.4v47.8h17.2Zm178.6-79.3q0,22.1-22.1,22.1h-17.4V552.7h-12.7v-40h30.2q22.1,0,22.1,22.1Zm-47.3,22.1h-30.2q-22.1,0-22.1-22.1v-92q0-22.1,22.1-22.1h17.4v97.2h12.7Zm136.8-97.2h-73.1v-39h16.6v-33h38.7v33h17.7Zm2.9,97.2h-37.2q-22.1,0-22.1-22.1V559.5h38.7v50.4h20.5Z" transform="translate(-58.4 -31)" style="fill:#409bff"/><path d="M1201.2,346.1q0,22.1-21.8,22.1h-35.9V321.4h13.8V296.2h-13.8V249.7h10.9V218.5h-10.9V173.7h35.9q21.8,0,21.8,22.1V264l-4.7,9.4a33.2,33.2,0,0,1,4.7,9.4Zm-66,22.1h-46.8V173.7h46.8Zm123.2,0h-39V173.7h39ZM1373,346.1q0,22.1-22.1,22.1h-27v-39h9.4V271H1283V232h67.9q9.9,0,15.9,6t6.2,16.4Zm-47.6-24.7h-9.6v46.8h-17.9q-22.1,0-22.1-22.1V305.3q0-14.6,6.2-20.5t22.9-6h20.5ZM1488,281.1h-39.5V232h17.4q22.1,0,22.1,22.6Zm0,65.3q0,21.8-22.1,21.8h-53.6q-22.1,0-22.1-21.8V254.6q0-22.6,22.1-22.6h28.3v39h-10.4v56.2h19.5v-9.9H1488Zm126.2,21.8h-42.9l-37.7-74.9L1564,232h44.5l-32,64.2Zm-69.4,0h-40V173.7h40v80.1l-20.5,39.5,20.5,40Z" transform="translate(-58.4 -31)"/><path d="M1245.1,937.6h-47.8l-31.7-115.4,8.6-42.6h-23.9l7.8-36.4h31.2Zm-67.9-36.1h-41.9l-9.6,36.1h-48.1l52.5-194.5h19.5l-10.4,44.7h24.2l-16.6,70.2h19Zm114.4,36.1h-39V743.1h39ZM1408.6,864q0,22.1-22.1,22.1h-30.7V849.7h11.4V801.1h19.2q22.1,0,22.1,22.1Zm-1.3,51.5q0,22.1-20.8,22.1h-55.4q-22.1,0-22.1-22.1V823.2q0-9.1,4.9-15.1t17.2-7h28.3v40.8H1348v56.7h59.3Zm78.4-75.1h-29.4v-39h29.4Zm-21.8,97.2h-39.5V801.4h24.2v46.8h15.3Zm107.4-97.2h-73.1v-39h16.6v-33h38.7v33h17.7Zm2.9,97.2h-37.2q-22.1,0-22.1-22.1V848.2h38.7v50.4H1574Z" transform="translate(-58.4 -31)" style="fill:#e44a51"/><text transform="translate(224.2 573.8)" style="font-size:93.38552856445312px;font-family:SpaceAge, Space Age">B.S.A</text></svg>